STARTFONT 2.1
FONT dos437
SIZE 8 72 72
FONTBOUNDINGBOX 8 16 0 0
STARTPROPERTIES 17
FAMILY_NAME "dos437"
FOUNDRY "jcs"
SETWIDTH_NAME "Normal"
ADD_STYLE_NAME ""
COPYRIGHT "Copyright (c) 2011 joshua stein"
WEIGHT_NAME "Medium"
SLANT "R"
PIXEL_SIZE 16
POINT_SIZE 160
RESOLUTION_X 72
RESOLUTION_Y 72
SPACING "C"
AVERAGE_WIDTH 80
CHARSET_ENCODING "1"
MIN_SPACE 8
FONT_ASCENT 12
FONT_DESCENT 4
ENDPROPERTIES
CHARS 254
STARTCHAR uni0001
ENCODING 1
SWIDTH 500 0
DWIDTH 8 0
BBX 8 10 0 0
BITMAP
7E00
8100
A500
8100
8100
BD00
9900
8100
8100
7E00
ENDCHAR
STARTCHAR uni0002
ENCODING 2
SWIDTH 500 0
DWIDTH 8 0
BBX 8 10 0 0
BITMAP
7E00
FF00
DB00
FF00
FF00
C300
E700
FF00
FF00
7E00
ENDCHAR
STARTCHAR uni0003
ENCODING 3
SWIDTH 500 0
DWIDTH 8 0
BBX 7 8 0 0
BITMAP
6C00
FE00
FE00
FE00
FE00
7C00
3800
1000
ENDCHAR
STARTCHAR uni0004
ENCODING 4
SWIDTH 500 0
DWIDTH 8 0
BBX 7 7 0 1
BITMAP
1000
3800
7C00
FE00
7C00
3800
1000
ENDCHAR
STARTCHAR uni0005
ENCODING 5
SWIDTH 500 0
DWIDTH 8 0
BBX 8 9 0 0
BITMAP
1800
3C00
3C00
E700
E700
E700
1800
1800
3C00
ENDCHAR
STARTCHAR uni0006
ENCODING 6
SWIDTH 500 0
DWIDTH 8 0
BBX 8 9 0 0
BITMAP
1800
3C00
7E00
FF00
FF00
7E00
1800
1800
3C00
ENDCHAR
STARTCHAR uni0007
ENCODING 7
SWIDTH 500 0
DWIDTH 8 0
BBX 4 4 2 2
BITMAP
6000
F000
F000
6000
ENDCHAR
STARTCHAR uni0008
ENCODING 8
SWIDTH 500 0
DWIDTH 8 0
BBX 8 16 0 -4
BITMAP
FF00
FF00
FF00
FF00
FF00
FF00
E700
C300
C300
E700
FF00
FF00
FF00
FF00
FF00
FF00
ENDCHAR
STARTCHAR uni0009
ENCODING 9
SWIDTH 500 0
DWIDTH 8 0
BBX 6 6 1 1
BITMAP
7800
CC00
8400
8400
CC00
7800
ENDCHAR
STARTCHAR uni000A
ENCODING 10
SWIDTH 500 0
DWIDTH 8 0
BBX 8 16 0 -4
BITMAP
FF00
FF00
FF00
FF00
FF00
C300
9900
BD00
BD00
9900
C300
FF00
FF00
FF00
FF00
FF00
ENDCHAR
STARTCHAR uni000B
ENCODING 11
SWIDTH 500 0
DWIDTH 8 0
BBX 7 10 0 0
BITMAP
1E00
0E00
1A00
3200
7800
CC00
CC00
CC00
CC00
7800
ENDCHAR
STARTCHAR uni000C
ENCODING 12
SWIDTH 500 0
DWIDTH 8 0
BBX 6 10 0 0
BITMAP
7800
CC00
CC00
CC00
CC00
7800
3000
FC00
3000
3000
ENDCHAR
STARTCHAR CR
ENCODING 13
SWIDTH 500 0
DWIDTH 8 0
BBX 8 10 0 0
BITMAP
3F00
3300
3F00
3000
3000
3000
3000
7000
F000
E000
ENDCHAR
STARTCHAR uni000E
ENCODING 14
SWIDTH 500 0
DWIDTH 8 0
BBX 8 10 0 0
BITMAP
7F00
6300
7F00
6300
6300
6300
6700
E700
E600
C000
ENDCHAR
STARTCHAR uni000F
ENCODING 15
SWIDTH 500 0
DWIDTH 8 0
BBX 8 9 0 0
BITMAP
1800
1800
DB00
3C00
E700
3C00
DB00
1800
1800
ENDCHAR
STARTCHAR uni0010
ENCODING 16
SWIDTH 500 0
DWIDTH 8 0
BBX 7 11 0 0
BITMAP
8000
C000
E000
F000
F800
FE00
F800
F000
E000
C000
8000
ENDCHAR
STARTCHAR uni0011
ENCODING 17
SWIDTH 500 0
DWIDTH 8 0
BBX 7 11 0 0
BITMAP
0200
0600
0E00
1E00
3E00
FE00
3E00
1E00
0E00
0600
0200
ENDCHAR
STARTCHAR uni0012
ENCODING 18
SWIDTH 500 0
DWIDTH 8 0
BBX 6 9 1 1
BITMAP
3000
7800
FC00
3000
3000
3000
FC00
7800
3000
ENDCHAR
STARTCHAR uni0013
ENCODING 19
SWIDTH 500 0
DWIDTH 8 0
BBX 6 10 1 0
BITMAP
CC00
CC00
CC00
CC00
CC00
CC00
CC00
0000
CC00
CC00
ENDCHAR
STARTCHAR uni0014
ENCODING 20
SWIDTH 500 0
DWIDTH 8 0
BBX 8 10 0 0
BITMAP
7F00
DB00
DB00
DB00
7B00
1B00
1B00
1B00
1B00
1B00
ENDCHAR
STARTCHAR uni0015
ENCODING 21
SWIDTH 500 0
DWIDTH 8 0
BBX 7 12 0 -1
BITMAP
7C00
C600
6000
3800
6C00
C600
C600
6C00
3800
0C00
C600
7C00
ENDCHAR
STARTCHAR uni0016
ENCODING 22
SWIDTH 500 0
DWIDTH 8 0
BBX 7 4 0 0
BITMAP
FE00
FE00
FE00
FE00
ENDCHAR
STARTCHAR uni0017
ENCODING 23
SWIDTH 500 0
DWIDTH 8 0
BBX 6 10 1 0
BITMAP
3000
7800
FC00
3000
3000
3000
FC00
7800
3000
FC00
ENDCHAR
STARTCHAR uni0018
ENCODING 24
SWIDTH 500 0
DWIDTH 8 0
BBX 6 10 1 0
BITMAP
3000
7800
FC00
3000
3000
3000
3000
3000
3000
3000
ENDCHAR
STARTCHAR uni0019
ENCODING 25
SWIDTH 500 0
DWIDTH 8 0
BBX 6 10 1 0
BITMAP
3000
3000
3000
3000
3000
3000
3000
FC00
7800
3000
ENDCHAR
STARTCHAR uni001A
ENCODING 26
SWIDTH 500 0
DWIDTH 8 0
BBX 7 5 0 2
BITMAP
1800
0C00
FE00
0C00
1800
ENDCHAR
STARTCHAR uni001B
ENCODING 27
SWIDTH 500 0
DWIDTH 8 0
BBX 7 5 0 2
BITMAP
3000
6000
FE00
6000
3000
ENDCHAR
STARTCHAR uni001C
ENCODING 28
SWIDTH 500 0
DWIDTH 8 0
BBX 7 4 0 2
BITMAP
C000
C000
C000
FE00
ENDCHAR
STARTCHAR uni001D
ENCODING 29
SWIDTH 500 0
DWIDTH 8 0
BBX 7 5 0 2
BITMAP
2800
6C00
FE00
6C00
2800
ENDCHAR
STARTCHAR uni001E
ENCODING 30
SWIDTH 500 0
DWIDTH 8 0
BBX 7 7 0 1
BITMAP
1000
3800
3800
7C00
7C00
FE00
FE00
ENDCHAR
STARTCHAR uni001F
ENCODING 31
SWIDTH 500 0
DWIDTH 8 0
BBX 7 7 0 1
BITMAP
FE00
FE00
7C00
7C00
3800
3800
1000
ENDCHAR
STARTCHAR nbspace
ENCODING 32
SWIDTH 500 0
DWIDTH 8 0
BBX 8 16 0 -4
BITMAP
00
00
00
00
00
00
00
00
00
00
00
00
00
00
00
00
ENDCHAR
STARTCHAR exclam
ENCODING 33
SWIDTH 500 0
DWIDTH 8 0
BBX 4 10 2 0
BITMAP
6000
F000
F000
F000
6000
6000
6000
0000
6000
6000
ENDCHAR
STARTCHAR quotedbl
ENCODING 34
SWIDTH 500 0
DWIDTH 8 0
BBX 6 4 1 7
BITMAP
CC00
CC00
CC00
4800
ENDCHAR
STARTCHAR numbersign
ENCODING 35
SWIDTH 500 0
DWIDTH 8 0
BBX 7 9 0 0
BITMAP
6C00
6C00
FE00
6C00
6C00
6C00
FE00
6C00
6C00
ENDCHAR
STARTCHAR dollar
ENCODING 36
SWIDTH 500 0
DWIDTH 8 0
BBX 7 14 0 -2
BITMAP
1800
1800
7C00
C600
C200
C000
7C00
0600
0600
8600
C600
7C00
1800
1800
ENDCHAR
STARTCHAR percent
ENCODING 37
SWIDTH 500 0
DWIDTH 8 0
BBX 7 8 0 0
BITMAP
C200
C600
0C00
1800
3000
6000
C600
8600
ENDCHAR
STARTCHAR ampersand
ENCODING 38
SWIDTH 500 0
DWIDTH 8 0
BBX 7 10 0 0
BITMAP
3800
6C00
6C00
3800
7600
DC00
CC00
CC00
CC00
7600
ENDCHAR
STARTCHAR quotesingle
ENCODING 39
SWIDTH 500 0
DWIDTH 8 0
BBX 3 4 1 7
BITMAP
6000
6000
6000
C000
ENDCHAR
STARTCHAR parenleft
ENCODING 40
SWIDTH 500 0
DWIDTH 8 0
BBX 4 10 2 0
BITMAP
3000
6000
C000
C000
C000
C000
C000
C000
6000
3000
ENDCHAR
STARTCHAR parenright
ENCODING 41
SWIDTH 500 0
DWIDTH 8 0
BBX 4 10 2 0
BITMAP
C000
6000
3000
3000
3000
3000
3000
3000
6000
C000
ENDCHAR
STARTCHAR asterisk
ENCODING 42
SWIDTH 500 0
DWIDTH 8 0
BBX 8 5 0 2
BITMAP
6600
3C00
FF00
3C00
6600
ENDCHAR
STARTCHAR plus
ENCODING 43
SWIDTH 500 0
DWIDTH 8 0
BBX 6 5 1 2
BITMAP
3000
3000
FC00
3000
3000
ENDCHAR
STARTCHAR comma
ENCODING 44
SWIDTH 500 0
DWIDTH 8 0
BBX 3 4 2 -1
BITMAP
6000
6000
6000
C000
ENDCHAR
STARTCHAR hyphen
ENCODING 45
SWIDTH 500 0
DWIDTH 8 0
BBX 7 1 0 4
BITMAP
FE00
ENDCHAR
STARTCHAR period
ENCODING 46
SWIDTH 500 0
DWIDTH 8 0
BBX 2 2 3 0
BITMAP
C000
C000
ENDCHAR
STARTCHAR slash
ENCODING 47
SWIDTH 500 0
DWIDTH 8 0
BBX 7 8 0 0
BITMAP
0200
0600
0C00
1800
3000
6000
C000
8000
ENDCHAR
STARTCHAR zero
ENCODING 48
SWIDTH 500 0
DWIDTH 8 0
BBX 7 10 0 0
BITMAP
3800
6C00
C600
C600
D600
D600
C600
C600
6C00
3800
ENDCHAR
STARTCHAR one
ENCODING 49
SWIDTH 500 0
DWIDTH 8 0
BBX 6 10 1 0
BITMAP
3000
7000
F000
3000
3000
3000
3000
3000
3000
FC00
ENDCHAR
STARTCHAR two
ENCODING 50
SWIDTH 500 0
DWIDTH 8 0
BBX 7 10 0 0
BITMAP
7C00
C600
0600
0C00
1800
3000
6000
C000
C600
FE00
ENDCHAR
STARTCHAR three
ENCODING 51
SWIDTH 500 0
DWIDTH 8 0
BBX 7 10 0 0
BITMAP
7C00
C600
0600
0600
3C00
0600
0600
0600
C600
7C00
ENDCHAR
STARTCHAR four
ENCODING 52
SWIDTH 500 0
DWIDTH 8 0
BBX 7 10 0 0
BITMAP
0C00
1C00
3C00
6C00
CC00
FE00
0C00
0C00
0C00
1E00
ENDCHAR
STARTCHAR five
ENCODING 53
SWIDTH 500 0
DWIDTH 8 0
BBX 7 10 0 0
BITMAP
FE00
C000
C000
C000
FC00
0600
0600
0600
C600
7C00
ENDCHAR
STARTCHAR six
ENCODING 54
SWIDTH 500 0
DWIDTH 8 0
BBX 7 10 0 0
BITMAP
3800
6000
C000
C000
FC00
C600
C600
C600
C600
7C00
ENDCHAR
STARTCHAR seven
ENCODING 55
SWIDTH 500 0
DWIDTH 8 0
BBX 7 10 0 0
BITMAP
FE00
C600
0600
0600
0C00
1800
3000
3000
3000
3000
ENDCHAR
STARTCHAR eight
ENCODING 56
SWIDTH 500 0
DWIDTH 8 0
BBX 7 10 0 0
BITMAP
7C00
C600
C600
C600
7C00
C600
C600
C600
C600
7C00
ENDCHAR
STARTCHAR nine
ENCODING 57
SWIDTH 500 0
DWIDTH 8 0
BBX 7 10 0 0
BITMAP
7C00
C600
C600
C600
7E00
0600
0600
0600
0C00
7800
ENDCHAR
STARTCHAR colon
ENCODING 58
SWIDTH 500 0
DWIDTH 8 0
BBX 2 7 3 1
BITMAP
C000
C000
0000
0000
0000
C000
C000
ENDCHAR
STARTCHAR semicolon
ENCODING 59
SWIDTH 500 0
DWIDTH 8 0
BBX 3 8 2 0
BITMAP
6000
6000
0000
0000
0000
6000
6000
C000
ENDCHAR
STARTCHAR less
ENCODING 60
SWIDTH 500 0
DWIDTH 8 0
BBX 6 9 1 0
BITMAP
0C00
1800
3000
6000
C000
6000
3000
1800
0C00
ENDCHAR
STARTCHAR equal
ENCODING 61
SWIDTH 500 0
DWIDTH 8 0
BBX 6 4 1 3
BITMAP
FC00
0000
0000
FC00
ENDCHAR
STARTCHAR greater
ENCODING 62
SWIDTH 500 0
DWIDTH 8 0
BBX 6 9 1 0
BITMAP
C000
6000
3000
1800
0C00
1800
3000
6000
C000
ENDCHAR
STARTCHAR question
ENCODING 63
SWIDTH 500 0
DWIDTH 8 0
BBX 7 10 0 0
BITMAP
7C00
C600
C600
0C00
1800
1800
1800
0000
1800
1800
ENDCHAR
STARTCHAR at
ENCODING 64
SWIDTH 500 0
DWIDTH 8 0
BBX 7 9 0 0
BITMAP
7C00
C600
C600
DE00
DE00
DE00
DC00
C000
7C00
ENDCHAR
STARTCHAR A
ENCODING 65
SWIDTH 500 0
DWIDTH 8 0
BBX 7 10 0 0
BITMAP
1000
3800
6C00
C600
C600
FE00
C600
C600
C600
C600
ENDCHAR
STARTCHAR B
ENCODING 66
SWIDTH 500 0
DWIDTH 8 0
BBX 7 10 0 0
BITMAP
FC00
6600
6600
6600
7C00
6600
6600
6600
6600
FC00
ENDCHAR
STARTCHAR C
ENCODING 67
SWIDTH 500 0
DWIDTH 8 0
BBX 7 10 0 0
BITMAP
3C00
6600
C200
C000
C000
C000
C000
C200
6600
3C00
ENDCHAR
STARTCHAR D
ENCODING 68
SWIDTH 500 0
DWIDTH 8 0
BBX 7 10 0 0
BITMAP
F800
6C00
6600
6600
6600
6600
6600
6600
6C00
F800
ENDCHAR
STARTCHAR E
ENCODING 69
SWIDTH 500 0
DWIDTH 8 0
BBX 7 10 0 0
BITMAP
FE00
6600
6200
6800
7800
6800
6000
6200
6600
FE00
ENDCHAR
STARTCHAR F
ENCODING 70
SWIDTH 500 0
DWIDTH 8 0
BBX 7 10 0 0
BITMAP
FE00
6600
6200
6800
7800
6800
6000
6000
6000
F000
ENDCHAR
STARTCHAR G
ENCODING 71
SWIDTH 500 0
DWIDTH 8 0
BBX 7 10 0 0
BITMAP
3C00
6600
C200
C000
C000
DE00
C600
C600
6600
3A00
ENDCHAR
STARTCHAR H
ENCODING 72
SWIDTH 500 0
DWIDTH 8 0
BBX 7 10 0 0
BITMAP
C600
C600
C600
C600
FE00
C600
C600
C600
C600
C600
ENDCHAR
STARTCHAR I
ENCODING 73
SWIDTH 500 0
DWIDTH 8 0
BBX 4 10 2 0
BITMAP
F000
6000
6000
6000
6000
6000
6000
6000
6000
F000
ENDCHAR
STARTCHAR J
ENCODING 74
SWIDTH 500 0
DWIDTH 8 0
BBX 7 10 0 0
BITMAP
1E00
0C00
0C00
0C00
0C00
0C00
CC00
CC00
CC00
7800
ENDCHAR
STARTCHAR K
ENCODING 75
SWIDTH 500 0
DWIDTH 8 0
BBX 7 10 0 0
BITMAP
E600
6600
6600
6C00
7800
7800
6C00
6600
6600
E600
ENDCHAR
STARTCHAR L
ENCODING 76
SWIDTH 500 0
DWIDTH 8 0
BBX 7 10 0 0
BITMAP
F000
6000
6000
6000
6000
6000
6000
6200
6600
FE00
ENDCHAR
STARTCHAR M
ENCODING 77
SWIDTH 500 0
DWIDTH 8 0
BBX 7 10 0 0
BITMAP
C600
EE00
FE00
FE00
D600
C600
C600
C600
C600
C600
ENDCHAR
STARTCHAR N
ENCODING 78
SWIDTH 500 0
DWIDTH 8 0
BBX 7 10 0 0
BITMAP
C600
E600
F600
FE00
DE00
CE00
C600
C600
C600
C600
ENDCHAR
STARTCHAR O
ENCODING 79
SWIDTH 500 0
DWIDTH 8 0
BBX 7 10 0 0
BITMAP
7C00
C600
C600
C600
C600
C600
C600
C600
C600
7C00
ENDCHAR
STARTCHAR P
ENCODING 80
SWIDTH 500 0
DWIDTH 8 0
BBX 7 10 0 0
BITMAP
FC00
6600
6600
6600
7C00
6000
6000
6000
6000
F000
ENDCHAR
STARTCHAR Q
ENCODING 81
SWIDTH 500 0
DWIDTH 8 0
BBX 7 12 0 -2
BITMAP
7C00
C600
C600
C600
C600
C600
C600
D600
DE00
7C00
0C00
0E00
ENDCHAR
STARTCHAR R
ENCODING 82
SWIDTH 500 0
DWIDTH 8 0
BBX 7 10 0 0
BITMAP
FC00
6600
6600
6600
7C00
6C00
6600
6600
6600
E600
ENDCHAR
STARTCHAR S
ENCODING 83
SWIDTH 500 0
DWIDTH 8 0
BBX 7 10 0 0
BITMAP
7C00
C600
C600
6000
3800
0C00
0600
C600
C600
7C00
ENDCHAR
STARTCHAR T
ENCODING 84
SWIDTH 500 0
DWIDTH 8 0
BBX 6 10 1 0
BITMAP
FC00
FC00
B400
3000
3000
3000
3000
3000
3000
7800
ENDCHAR
STARTCHAR U
ENCODING 85
SWIDTH 500 0
DWIDTH 8 0
BBX 7 10 0 0
BITMAP
C600
C600
C600
C600
C600
C600
C600
C600
C600
7C00
ENDCHAR
STARTCHAR V
ENCODING 86
SWIDTH 500 0
DWIDTH 8 0
BBX 7 10 0 0
BITMAP
C600
C600
C600
C600
C600
C600
C600
6C00
3800
1000
ENDCHAR
STARTCHAR W
ENCODING 87
SWIDTH 500 0
DWIDTH 8 0
BBX 7 10 0 0
BITMAP
C600
C600
C600
C600
D600
D600
D600
FE00
EE00
6C00
ENDCHAR
STARTCHAR X
ENCODING 88
SWIDTH 500 0
DWIDTH 8 0
BBX 7 10 0 0
BITMAP
C600
C600
6C00
7C00
3800
3800
7C00
6C00
C600
C600
ENDCHAR
STARTCHAR Y
ENCODING 89
SWIDTH 500 0
DWIDTH 8 0
BBX 6 10 1 0
BITMAP
CC00
CC00
CC00
CC00
7800
3000
3000
3000
3000
7800
ENDCHAR
STARTCHAR Z
ENCODING 90
SWIDTH 500 0
DWIDTH 8 0
BBX 7 10 0 0
BITMAP
FE00
C600
8600
0C00
1800
3000
6000
C200
C600
FE00
ENDCHAR
STARTCHAR bracketleft
ENCODING 91
SWIDTH 500 0
DWIDTH 8 0
BBX 4 10 2 0
BITMAP
F000
C000
C000
C000
C000
C000
C000
C000
C000
F000
ENDCHAR
STARTCHAR backslash
ENCODING 92
SWIDTH 500 0
DWIDTH 8 0
BBX 7 9 0 0
BITMAP
8000
C000
E000
7000
3800
1C00
0E00
0600
0200
ENDCHAR
STARTCHAR bracketright
ENCODING 93
SWIDTH 500 0
DWIDTH 8 0
BBX 4 10 2 0
BITMAP
F000
3000
3000
3000
3000
3000
3000
3000
3000
F000
ENDCHAR
STARTCHAR asciicircum
ENCODING 94
SWIDTH 500 0
DWIDTH 8 0
BBX 7 4 0 8
BITMAP
1000
3800
6C00
C600
ENDCHAR
STARTCHAR underscore
ENCODING 95
SWIDTH 500 0
DWIDTH 8 0
BBX 8 1 0 -2
BITMAP
FF00
ENDCHAR
STARTCHAR grave
ENCODING 96
SWIDTH 500 0
DWIDTH 8 0
BBX 4 3 2 8
BITMAP
C000
6000
3000
ENDCHAR
STARTCHAR a
ENCODING 97
SWIDTH 500 0
DWIDTH 8 0
BBX 7 7 0 0
BITMAP
7800
0C00
7C00
CC00
CC00
CC00
7600
ENDCHAR
STARTCHAR b
ENCODING 98
SWIDTH 500 0
DWIDTH 8 0
BBX 7 10 0 0
BITMAP
E000
6000
6000
7800
6C00
6600
6600
6600
6600
7C00
ENDCHAR
STARTCHAR c
ENCODING 99
SWIDTH 500 0
DWIDTH 8 0
BBX 7 7 0 0
BITMAP
7C00
C600
C000
C000
C000
C600
7C00
ENDCHAR
STARTCHAR d
ENCODING 100
SWIDTH 500 0
DWIDTH 8 0
BBX 7 10 0 0
BITMAP
1C00
0C00
0C00
3C00
6C00
CC00
CC00
CC00
CC00
7600
ENDCHAR
STARTCHAR e
ENCODING 101
SWIDTH 500 0
DWIDTH 8 0
BBX 7 7 0 0
BITMAP
7C00
C600
FE00
C000
C000
C600
7C00
ENDCHAR
STARTCHAR f
ENCODING 102
SWIDTH 500 0
DWIDTH 8 0
BBX 6 10 1 0
BITMAP
3800
6C00
6400
6000
F000
6000
6000
6000
6000
F000
ENDCHAR
STARTCHAR g
ENCODING 103
SWIDTH 500 0
DWIDTH 8 0
BBX 7 10 0 -3
BITMAP
7600
CC00
CC00
CC00
CC00
CC00
7C00
0C00
CC00
7800
ENDCHAR
STARTCHAR h
ENCODING 104
SWIDTH 500 0
DWIDTH 8 0
BBX 7 10 0 0
BITMAP
E000
6000
6000
6C00
7600
6600
6600
6600
6600
E600
ENDCHAR
STARTCHAR i
ENCODING 105
SWIDTH 500 0
DWIDTH 8 0
BBX 4 10 2 0
BITMAP
6000
6000
0000
E000
6000
6000
6000
6000
6000
F000
ENDCHAR
STARTCHAR j
ENCODING 106
SWIDTH 500 0
DWIDTH 8 0
BBX 6 13 1 -3
BITMAP
0C00
0C00
0000
1C00
0C00
0C00
0C00
0C00
0C00
0C00
CC00
CC00
7800
ENDCHAR
STARTCHAR k
ENCODING 107
SWIDTH 500 0
DWIDTH 8 0
BBX 7 10 0 0
BITMAP
E000
6000
6000
6600
6C00
7800
7800
6C00
6600
E600
ENDCHAR
STARTCHAR l
ENCODING 108
SWIDTH 500 0
DWIDTH 8 0
BBX 4 10 2 0
BITMAP
E000
6000
6000
6000
6000
6000
6000
6000
6000
F000
ENDCHAR
STARTCHAR m
ENCODING 109
SWIDTH 500 0
DWIDTH 8 0
BBX 7 7 0 0
BITMAP
EC00
FE00
D600
D600
D600
D600
C600
ENDCHAR
STARTCHAR n
ENCODING 110
SWIDTH 500 0
DWIDTH 8 0
BBX 7 7 0 0
BITMAP
DC00
6600
6600
6600
6600
6600
6600
ENDCHAR
STARTCHAR o
ENCODING 111
SWIDTH 500 0
DWIDTH 8 0
BBX 7 7 0 0
BITMAP
7C00
C600
C600
C600
C600
C600
7C00
ENDCHAR
STARTCHAR p
ENCODING 112
SWIDTH 500 0
DWIDTH 8 0
BBX 7 10 0 -3
BITMAP
DC00
6600
6600
6600
6600
6600
7C00
6000
6000
F000
ENDCHAR
STARTCHAR q
ENCODING 113
SWIDTH 500 0
DWIDTH 8 0
BBX 7 10 0 -3
BITMAP
7600
CC00
CC00
CC00
CC00
CC00
7C00
0C00
0C00
1E00
ENDCHAR
STARTCHAR r
ENCODING 114
SWIDTH 500 0
DWIDTH 8 0
BBX 7 7 0 0
BITMAP
DC00
7600
6600
6000
6000
6000
F000
ENDCHAR
STARTCHAR s
ENCODING 115
SWIDTH 500 0
DWIDTH 8 0
BBX 7 7 0 0
BITMAP
7C00
C600
6000
3800
0C00
C600
7C00
ENDCHAR
STARTCHAR t
ENCODING 116
SWIDTH 500 0
DWIDTH 8 0
BBX 7 10 0 0
BITMAP
1000
3000
3000
FC00
3000
3000
3000
3000
3600
1C00
ENDCHAR
STARTCHAR u
ENCODING 117
SWIDTH 500 0
DWIDTH 8 0
BBX 7 7 0 0
BITMAP
CC00
CC00
CC00
CC00
CC00
CC00
7600
ENDCHAR
STARTCHAR v
ENCODING 118
SWIDTH 500 0
DWIDTH 8 0
BBX 7 7 0 0
BITMAP
C600
C600
C600
C600
C600
6C00
3800
ENDCHAR
STARTCHAR w
ENCODING 119
SWIDTH 500 0
DWIDTH 8 0
BBX 7 7 0 0
BITMAP
C600
C600
D600
D600
D600
FE00
6C00
ENDCHAR
STARTCHAR x
ENCODING 120
SWIDTH 500 0
DWIDTH 8 0
BBX 7 7 0 0
BITMAP
C600
6C00
3800
3800
3800
6C00
C600
ENDCHAR
STARTCHAR y
ENCODING 121
SWIDTH 500 0
DWIDTH 8 0
BBX 7 10 0 -3
BITMAP
C600
C600
C600
C600
C600
C600
7E00
0600
0C00
F800
ENDCHAR
STARTCHAR z
ENCODING 122
SWIDTH 500 0
DWIDTH 8 0
BBX 7 7 0 0
BITMAP
FE00
CC00
1800
3000
6000
C600
FE00
ENDCHAR
STARTCHAR braceleft
ENCODING 123
SWIDTH 500 0
DWIDTH 8 0
BBX 7 10 1 0
BITMAP
1E00
3000
3000
3000
E000
3000
3000
3000
3000
1E00
ENDCHAR
STARTCHAR bar
ENCODING 124
SWIDTH 500 0
DWIDTH 8 0
BBX 2 10 3 0
BITMAP
C000
C000
C000
C000
C000
C000
C000
C000
C000
C000
ENDCHAR
STARTCHAR braceright
ENCODING 125
SWIDTH 500 0
DWIDTH 8 0
BBX 6 10 1 0
BITMAP
E000
3000
3000
3000
1C00
3000
3000
3000
3000
E000
ENDCHAR
STARTCHAR asciitilde
ENCODING 126
SWIDTH 500 0
DWIDTH 8 0
BBX 7 2 0 9
BITMAP
7600
DC00
ENDCHAR
STARTCHAR uni007F
ENCODING 127
SWIDTH 500 0
DWIDTH 8 0
BBX 7 7 0 1
BITMAP
1000
3800
6C00
C600
C600
C600
FE00
ENDCHAR
STARTCHAR Euro
ENCODING 8364
SWIDTH 500 0
DWIDTH 8 0
BBX 7 12 0 -2
BITMAP
3C00
6600
C200
C000
C000
C000
C000
C200
6600
3C00
1800
7000
ENDCHAR
STARTCHAR uni0081
ENCODING 129
SWIDTH 500 0
DWIDTH 8 0
BBX 7 10 0 0
BITMAP
CC00
0000
0000
CC00
CC00
CC00
CC00
CC00
CC00
7600
ENDCHAR
STARTCHAR quotesinglbase
ENCODING 8218
SWIDTH 500 0
DWIDTH 8 0
BBX 7 11 0 0
BITMAP
0C00
1800
3000
0000
7C00
C600
FE00
C000
C000
C600
7C00
ENDCHAR
STARTCHAR florin
ENCODING 402
SWIDTH 500 0
DWIDTH 8 0
BBX 7 11 0 0
BITMAP
1000
3800
6C00
0000
7800
0C00
7C00
CC00
CC00
CC00
7600
ENDCHAR
STARTCHAR quotedblbase
ENCODING 8222
SWIDTH 500 0
DWIDTH 8 0
BBX 7 10 0 0
BITMAP
CC00
0000
0000
7800
0C00
7C00
CC00
CC00
CC00
7600
ENDCHAR
STARTCHAR ellipsis
ENCODING 8230
SWIDTH 500 0
DWIDTH 8 0
BBX 7 11 0 0
BITMAP
6000
3000
1800
0000
7800
0C00
7C00
CC00
CC00
CC00
7600
ENDCHAR
STARTCHAR dagger
ENCODING 8224
SWIDTH 500 0
DWIDTH 8 0
BBX 7 11 0 0
BITMAP
3800
6C00
3800
0000
7800
0C00
7C00
CC00
CC00
CC00
7600
ENDCHAR
STARTCHAR daggerdbl
ENCODING 8225
SWIDTH 500 0
DWIDTH 8 0
BBX 7 9 0 -2
BITMAP
7C00
C600
C000
C000
C000
C600
7C00
1800
7000
ENDCHAR
STARTCHAR circumflex
ENCODING 710
SWIDTH 500 0
DWIDTH 8 0
BBX 7 11 0 0
BITMAP
1000
3800
6C00
0000
7C00
C600
FE00
C000
C000
C600
7C00
ENDCHAR
STARTCHAR perthousand
ENCODING 8240
SWIDTH 500 0
DWIDTH 8 0
BBX 7 10 0 0
BITMAP
C600
0000
0000
7C00
C600
FE00
C000
C000
C600
7C00
ENDCHAR
STARTCHAR Scaron
ENCODING 352
SWIDTH 500 0
DWIDTH 8 0
BBX 7 11 0 0
BITMAP
6000
3000
1800
0000
7C00
C600
FE00
C000
C000
C600
7C00
ENDCHAR
STARTCHAR guilsinglleft
ENCODING 8249
SWIDTH 500 0
DWIDTH 8 0
BBX 6 10 1 0
BITMAP
CC00
0000
0000
7000
3000
3000
3000
3000
3000
7800
ENDCHAR
STARTCHAR OE
ENCODING 338
SWIDTH 500 0
DWIDTH 8 0
BBX 6 11 1 0
BITMAP
3000
7800
CC00
0000
7000
3000
3000
3000
3000
3000
7800
ENDCHAR
STARTCHAR uni008D
ENCODING 141
SWIDTH 500 0
DWIDTH 8 0
BBX 5 11 1 0
BITMAP
C000
6000
3000
0000
7000
3000
3000
3000
3000
3000
7800
ENDCHAR
STARTCHAR uni008E
ENCODING 142
SWIDTH 500 0
DWIDTH 8 0
BBX 7 11 0 0
BITMAP
C600
1000
3800
6C00
C600
C600
FE00
C600
C600
C600
C600
ENDCHAR
STARTCHAR uni008F
ENCODING 143
SWIDTH 500 0
DWIDTH 8 0
BBX 7 12 0 0
BITMAP
3800
6C00
3800
1000
3800
6C00
C600
FE00
C600
C600
C600
C600
ENDCHAR
STARTCHAR uni0090
ENCODING 144
SWIDTH 500 0
DWIDTH 8 0
BBX 7 12 0 0
BITMAP
0C00
1800
0000
FE00
6600
6200
6800
7800
6800
6200
6600
FE00
ENDCHAR
STARTCHAR quoteleft
ENCODING 8216
SWIDTH 500 0
DWIDTH 8 0
BBX 7 7 0 0
BITMAP
EC00
3600
3600
7E00
D800
D800
6E00
ENDCHAR
STARTCHAR quoteright
ENCODING 8217
SWIDTH 500 0
DWIDTH 8 0
BBX 7 12 0 0
BITMAP
3E00
6C00
CC00
CC00
FE00
CC00
CC00
CC00
CC00
CC00
CC00
CE00
ENDCHAR
STARTCHAR quotedblleft
ENCODING 8220
SWIDTH 500 0
DWIDTH 8 0
BBX 7 11 0 0
BITMAP
1000
3800
6C00
0000
7C00
C600
C600
C600
C600
C600
7C00
ENDCHAR
STARTCHAR quotedblright
ENCODING 8221
SWIDTH 500 0
DWIDTH 8 0
BBX 7 10 0 0
BITMAP
C600
0000
0000
7C00
C600
C600
C600
C600
C600
7C00
ENDCHAR
STARTCHAR bullet
ENCODING 8226
SWIDTH 500 0
DWIDTH 8 0
BBX 7 11 0 0
BITMAP
6000
3000
1800
0000
7C00
C600
C600
C600
C600
C600
7C00
ENDCHAR
STARTCHAR endash
ENCODING 8211
SWIDTH 500 0
DWIDTH 8 0
BBX 7 11 0 0
BITMAP
3000
7800
CC00
0000
CC00
CC00
CC00
CC00
CC00
CC00
7600
ENDCHAR
STARTCHAR emdash
ENCODING 8212
SWIDTH 500 0
DWIDTH 8 0
BBX 7 11 0 0
BITMAP
6000
3000
1800
0000
CC00
CC00
CC00
CC00
CC00
CC00
7600
ENDCHAR
STARTCHAR tilde
ENCODING 732
SWIDTH 500 0
DWIDTH 8 0
BBX 7 13 0 -3
BITMAP
C600
0000
0000
C600
C600
C600
C600
C600
C600
7E00
0600
0C00
F800
ENDCHAR
STARTCHAR trademark
ENCODING 8482
SWIDTH 500 0
DWIDTH 8 0
BBX 7 11 0 0
BITMAP
C600
0000
7C00
C600
C600
C600
C600
C600
C600
C600
7C00
ENDCHAR
STARTCHAR scaron
ENCODING 353
SWIDTH 500 0
DWIDTH 8 0
BBX 7 11 0 0
BITMAP
C600
0000
C600
C600
C600
C600
C600
C600
C600
C600
7C00
ENDCHAR
STARTCHAR guilsinglright
ENCODING 8250
SWIDTH 500 0
DWIDTH 8 0
BBX 7 11 0 0
BITMAP
1800
1800
7C00
C600
C000
C000
C000
C600
7C00
1800
1800
ENDCHAR
STARTCHAR oe
ENCODING 339
SWIDTH 500 0
DWIDTH 8 0
BBX 7 11 0 0
BITMAP
3800
6C00
6400
6000
F000
6000
6000
6000
6000
E600
FC00
ENDCHAR
STARTCHAR uni009D
ENCODING 157
SWIDTH 500 0
DWIDTH 8 0
BBX 6 10 1 0
BITMAP
CC00
CC00
7800
3000
FC00
3000
FC00
3000
3000
3000
ENDCHAR
STARTCHAR uni009E
ENCODING 158
SWIDTH 500 0
DWIDTH 8 0
BBX 7 11 0 0
BITMAP
F800
CC00
CC00
F800
C400
CC00
DE00
CC00
CC00
CC00
C600
ENDCHAR
STARTCHAR Ydieresis
ENCODING 376
SWIDTH 500 0
DWIDTH 8 0
BBX 8 11 0 0
BITMAP
0E00
1B00
1800
1800
1800
7E00
1800
1800
1800
D800
7000
ENDCHAR
STARTCHAR uni00A0
ENCODING 160
SWIDTH 500 0
DWIDTH 8 0
BBX 7 11 0 0
BITMAP
1800
3000
6000
0000
7800
0C00
7C00
CC00
CC00
CC00
7600
ENDCHAR
STARTCHAR exclamdown
ENCODING 161
SWIDTH 500 0
DWIDTH 8 0
BBX 4 11 2 0
BITMAP
3000
6000
C000
0000
E000
6000
6000
6000
6000
6000
F000
ENDCHAR
STARTCHAR cent
ENCODING 162
SWIDTH 500 0
DWIDTH 8 0
BBX 7 11 0 0
BITMAP
1800
3000
6000
0000
7C00
C600
C600
C600
C600
C600
7C00
ENDCHAR
STARTCHAR sterling
ENCODING 163
SWIDTH 500 0
DWIDTH 8 0
BBX 7 11 0 0
BITMAP
1800
3000
6000
0000
CC00
CC00
CC00
CC00
CC00
CC00
7600
ENDCHAR
STARTCHAR currency
ENCODING 164
SWIDTH 500 0
DWIDTH 8 0
BBX 7 10 0 0
BITMAP
7600
DC00
0000
DC00
6600
6600
6600
6600
6600
6600
ENDCHAR
STARTCHAR yen
ENCODING 165
SWIDTH 500 0
DWIDTH 8 0
BBX 7 12 0 0
BITMAP
7600
DC00
0000
C600
E600
F600
FE00
DE00
CE00
C600
C600
C600
ENDCHAR
STARTCHAR brokenbar
ENCODING 166
SWIDTH 500 0
DWIDTH 8 0
BBX 6 6 1 4
BITMAP
7800
D800
D800
7C00
0000
FC00
ENDCHAR
STARTCHAR section
ENCODING 167
SWIDTH 500 0
DWIDTH 8 0
BBX 5 6 1 4
BITMAP
7000
D800
D800
7000
0000
F800
ENDCHAR
STARTCHAR dieresis
ENCODING 168
SWIDTH 500 0
DWIDTH 8 0
BBX 7 10 0 0
BITMAP
3000
3000
0000
3000
3000
6000
C000
C600
C600
7C00
ENDCHAR
STARTCHAR copyright
ENCODING 169
SWIDTH 500 0
DWIDTH 8 0
BBX 7 5 0 1
BITMAP
FE00
C000
C000
C000
C000
ENDCHAR
STARTCHAR ordfeminine
ENCODING 170
SWIDTH 500 0
DWIDTH 8 0
BBX 7 5 0 1
BITMAP
FE00
0600
0600
0600
0600
ENDCHAR
STARTCHAR guillemotleft
ENCODING 171
SWIDTH 500 0
DWIDTH 8 0
BBX 7 13 0 -2
BITMAP
6000
E000
6200
6600
6C00
1800
3000
6000
DC00
8600
0C00
1800
3E00
ENDCHAR
STARTCHAR logicalnot
ENCODING 172
SWIDTH 500 0
DWIDTH 8 0
BBX 8 13 0 -2
BITMAP
6000
E000
6200
6600
6C00
1800
3000
6600
CE00
9A00
3F00
0600
0600
ENDCHAR
STARTCHAR uni00AD
ENCODING 173
SWIDTH 500 0
DWIDTH 8 0
BBX 4 10 2 0
BITMAP
6000
6000
0000
6000
6000
6000
F000
F000
F000
6000
ENDCHAR
STARTCHAR registered
ENCODING 174
SWIDTH 500 0
DWIDTH 8 0
BBX 7 5 0 2
BITMAP
3600
6C00
D800
6C00
3600
ENDCHAR
STARTCHAR macron
ENCODING 175
SWIDTH 500 0
DWIDTH 8 0
BBX 7 5 0 2
BITMAP
D800
6C00
3600
6C00
D800
ENDCHAR
STARTCHAR ltshade
ENCODING 176
SWIDTH 500 0
DWIDTH 8 0
BBX 7 16 1 -4
BITMAP
2200
8800
2200
8800
2200
8800
2200
8800
2200
8800
2200
8800
2200
8800
2200
8800
ENDCHAR
STARTCHAR plusminus
ENCODING 177
SWIDTH 500 0
DWIDTH 8 0
BBX 8 16 0 -4
BITMAP
5500
AA00
5500
AA00
5500
AA00
5500
AA00
5500
AA00
5500
AA00
5500
AA00
5500
AA00
ENDCHAR
STARTCHAR twosuperior
ENCODING 178
SWIDTH 500 0
DWIDTH 8 0
BBX 8 16 0 -4
BITMAP
DD00
7700
DD00
7700
DD00
7700
DD00
7700
DD00
7700
DD00
7700
DD00
7700
DD00
7700
ENDCHAR
STARTCHAR threesuperior
ENCODING 179
SWIDTH 500 0
DWIDTH 8 0
BBX 2 16 3 -4
BITMAP
C000
C000
C000
C000
C000
C000
C000
C000
C000
C000
C000
C000
C000
C000
C000
C000
ENDCHAR
STARTCHAR acute
ENCODING 180
SWIDTH 500 0
DWIDTH 8 0
BBX 5 16 0 -4
BITMAP
1800
1800
1800
1800
1800
1800
1800
F800
1800
1800
1800
1800
1800
1800
1800
1800
ENDCHAR
STARTCHAR mu
ENCODING 181
SWIDTH 500 0
DWIDTH 8 0
BBX 5 16 0 -4
BITMAP
1800
1800
1800
1800
1800
F800
1800
F800
1800
1800
1800
1800
1800
1800
1800
1800
ENDCHAR
STARTCHAR paragraph
ENCODING 182
SWIDTH 500 0
DWIDTH 8 0
BBX 7 16 0 -4
BITMAP
3600
3600
3600
3600
3600
3600
3600
F600
3600
3600
3600
3600
3600
3600
3600
3600
ENDCHAR
STARTCHAR periodcentered
ENCODING 183
SWIDTH 500 0
DWIDTH 8 0
BBX 7 9 0 -4
BITMAP
FE00
3600
3600
3600
3600
3600
3600
3600
3600
ENDCHAR
STARTCHAR cedilla
ENCODING 184
SWIDTH 500 0
DWIDTH 8 0
BBX 5 11 0 -4
BITMAP
F800
1800
F800
1800
1800
1800
1800
1800
1800
1800
1800
ENDCHAR
STARTCHAR onesuperior
ENCODING 185
SWIDTH 500 0
DWIDTH 8 0
BBX 7 16 0 -4
BITMAP
3600
3600
3600
3600
3600
F600
0600
F600
3600
3600
3600
3600
3600
3600
3600
3600
ENDCHAR
STARTCHAR ordmasculine
ENCODING 186
SWIDTH 500 0
DWIDTH 8 0
BBX 5 16 2 -4
BITMAP
D800
D800
D800
D800
D800
D800
D800
D800
D800
D800
D800
D800
D800
D800
D800
D800
ENDCHAR
STARTCHAR guillemotright
ENCODING 187
SWIDTH 500 0
DWIDTH 8 0
BBX 7 11 0 -4
BITMAP
FE00
0600
F600
3600
3600
3600
3600
3600
3600
3600
3600
ENDCHAR
STARTCHAR onequarter
ENCODING 188
SWIDTH 500 0
DWIDTH 8 0
BBX 7 8 0 4
BITMAP
3600
3600
3600
3600
3600
F600
0600
FE00
ENDCHAR
STARTCHAR onehalf
ENCODING 189
SWIDTH 500 0
DWIDTH 8 0
BBX 7 8 0 4
BITMAP
3600
3600
3600
3600
3600
3600
3600
FE00
ENDCHAR
STARTCHAR threequarters
ENCODING 190
SWIDTH 500 0
DWIDTH 8 0
BBX 5 8 0 4
BITMAP
1800
1800
1800
1800
1800
F800
1800
F800
ENDCHAR
STARTCHAR questiondown
ENCODING 191
SWIDTH 500 0
DWIDTH 8 0
BBX 5 9 0 -4
BITMAP
F800
1800
1800
1800
1800
1800
1800
1800
1800
ENDCHAR
STARTCHAR Agrave
ENCODING 192
SWIDTH 500 0
DWIDTH 8 0
BBX 6 8 3 4
BITMAP
C000
C000
C000
C000
C000
C000
C000
FC00
ENDCHAR
STARTCHAR Aacute
ENCODING 193
SWIDTH 500 0
DWIDTH 8 0
BBX 8 8 0 4
BITMAP
1800
1800
1800
1800
1800
1800
1800
FF80
ENDCHAR
STARTCHAR Acircumflex
ENCODING 194
SWIDTH 500 0
DWIDTH 8 0
BBX 8 9 0 -4
BITMAP
FF80
1800
1800
1800
1800
1800
1800
1800
1800
ENDCHAR
STARTCHAR Atilde
ENCODING 195
SWIDTH 500 0
DWIDTH 8 0
BBX 6 16 3 -4
BITMAP
C000
C000
C000
C000
C000
C000
C000
FC00
C000
C000
C000
C000
C000
C000
C000
C000
ENDCHAR
STARTCHAR SF100000
ENCODING 196
SWIDTH 500 0
DWIDTH 8 0
BBX 8 1 0 4
BITMAP
FF80
ENDCHAR
STARTCHAR Aring
ENCODING 197
SWIDTH 500 0
DWIDTH 8 0
BBX 8 16 0 -4
BITMAP
1800
1800
1800
1800
1800
1800
1800
FF80
1800
1800
1800
1800
1800
1800
1800
1800
ENDCHAR
STARTCHAR AE
ENCODING 198
SWIDTH 500 0
DWIDTH 8 0
BBX 6 16 3 -4
BITMAP
C000
C000
C000
C000
C000
FC00
C000
FC00
C000
C000
C000
C000
C000
C000
C000
C000
ENDCHAR
STARTCHAR Ccedilla
ENCODING 199
SWIDTH 500 0
DWIDTH 8 0
BBX 7 16 2 -4
BITMAP
D800
D800
D800
D800
D800
D800
D800
DE00
D800
D800
D800
D800
D800
D800
D800
D800
ENDCHAR
STARTCHAR Egrave
ENCODING 200
SWIDTH 500 0
DWIDTH 8 0
BBX 7 8 2 4
BITMAP
D800
D800
D800
D800
D800
DE00
C000
FE00
ENDCHAR
STARTCHAR Eacute
ENCODING 201
SWIDTH 500 0
DWIDTH 8 0
BBX 7 11 2 -4
BITMAP
FE00
C000
DE00
D800
D800
D800
D800
D800
D800
D800
D800
ENDCHAR
STARTCHAR Ecircumflex
ENCODING 202
SWIDTH 500 0
DWIDTH 8 0
BBX 8 8 0 4
BITMAP
3600
3600
3600
3600
3600
F780
0000
FF80
ENDCHAR
STARTCHAR Edieresis
ENCODING 203
SWIDTH 500 0
DWIDTH 8 0
BBX 8 11 0 -4
BITMAP
FF80
0000
F780
3600
3600
3600
3600
3600
3600
3600
3600
ENDCHAR
STARTCHAR Igrave
ENCODING 204
SWIDTH 500 0
DWIDTH 8 0
BBX 7 16 2 -4
BITMAP
D800
D800
D800
D800
D800
DE00
C000
DE00
D800
D800
D800
D800
D800
D800
D800
D800
ENDCHAR
STARTCHAR Iacute
ENCODING 205
SWIDTH 500 0
DWIDTH 8 0
BBX 8 3 0 4
BITMAP
FF80
0000
FF80
ENDCHAR
STARTCHAR Icircumflex
ENCODING 206
SWIDTH 500 0
DWIDTH 8 0
BBX 8 16 0 -4
BITMAP
3600
3600
3600
3600
3600
F780
0000
F780
3600
3600
3600
3600
3600
3600
3600
3600
ENDCHAR
STARTCHAR Idieresis
ENCODING 207
SWIDTH 500 0
DWIDTH 8 0
BBX 8 6 0 4
BITMAP
1800
1800
1800
FF80
0000
FF80
ENDCHAR
STARTCHAR Eth
ENCODING 208
SWIDTH 500 0
DWIDTH 8 0
BBX 8 8 0 4
BITMAP
3600
3600
3600
3600
3600
3600
3600
FF80
ENDCHAR
STARTCHAR Ntilde
ENCODING 209
SWIDTH 500 0
DWIDTH 8 0
BBX 8 11 0 -4
BITMAP
FF80
0000
FF80
1800
1800
1800
1800
1800
1800
1800
1800
ENDCHAR
STARTCHAR Ograve
ENCODING 210
SWIDTH 500 0
DWIDTH 8 0
BBX 8 9 0 -4
BITMAP
FF80
3600
3600
3600
3600
3600
3600
3600
3600
ENDCHAR
STARTCHAR Oacute
ENCODING 211
SWIDTH 500 0
DWIDTH 8 0
BBX 7 8 2 4
BITMAP
D800
D800
D800
D800
D800
D800
D800
FE00
ENDCHAR
STARTCHAR Ocircumflex
ENCODING 212
SWIDTH 500 0
DWIDTH 8 0
BBX 6 8 3 4
BITMAP
C000
C000
C000
C000
C000
FC00
C000
FC00
ENDCHAR
STARTCHAR Otilde
ENCODING 213
SWIDTH 500 0
DWIDTH 8 0
BBX 6 11 3 -4
BITMAP
FC00
C000
FC00
C000
C000
C000
C000
C000
C000
C000
C000
ENDCHAR
STARTCHAR Odieresis
ENCODING 214
SWIDTH 500 0
DWIDTH 8 0
BBX 7 9 2 -4
BITMAP
FE00
D800
D800
D800
D800
D800
D800
D800
D800
ENDCHAR
STARTCHAR multiply
ENCODING 215
SWIDTH 500 0
DWIDTH 8 0
BBX 8 16 0 -4
BITMAP
3600
3600
3600
3600
3600
3600
3600
FF80
3600
3600
3600
3600
3600
3600
3600
3600
ENDCHAR
STARTCHAR Oslash
ENCODING 216
SWIDTH 500 0
DWIDTH 8 0
BBX 8 16 0 -4
BITMAP
1800
1800
1800
1800
1800
FF80
1800
FF80
1800
1800
1800
1800
1800
1800
1800
1800
ENDCHAR
STARTCHAR Ugrave
ENCODING 217
SWIDTH 500 0
DWIDTH 8 0
BBX 5 8 0 4
BITMAP
1800
1800
1800
1800
1800
1800
1800
F800
ENDCHAR
STARTCHAR Uacute
ENCODING 218
SWIDTH 500 0
DWIDTH 8 0
BBX 6 9 3 -4
BITMAP
FC00
C000
C000
C000
C000
C000
C000
C000
C000
ENDCHAR
STARTCHAR Ucircumflex
ENCODING 219
SWIDTH 500 0
DWIDTH 8 0
BBX 8 16 0 -4
BITMAP
FF80
FF80
FF80
FF80
FF80
FF80
FF80
FF80
FF80
FF80
FF80
FF80
FF80
FF80
FF80
FF80
ENDCHAR
STARTCHAR Udieresis
ENCODING 220
SWIDTH 500 0
DWIDTH 8 0
BBX 8 9 0 -4
BITMAP
FF80
FF80
FF80
FF80
FF80
FF80
FF80
FF80
FF80
ENDCHAR
STARTCHAR Yacute
ENCODING 221
SWIDTH 500 0
DWIDTH 8 0
BBX 4 16 0 -4
BITMAP
F000
F000
F000
F000
F000
F000
F000
F000
F000
F000
F000
F000
F000
F000
F000
F000
ENDCHAR
STARTCHAR Thorn
ENCODING 222
SWIDTH 500 0
DWIDTH 8 0
BBX 5 16 4 -4
BITMAP
F800
F800
F800
F800
F800
F800
F800
F800
F800
F800
F800
F800
F800
F800
F800
F800
ENDCHAR
STARTCHAR germandbls
ENCODING 223
SWIDTH 500 0
DWIDTH 8 0
BBX 8 7 0 5
BITMAP
FF80
FF80
FF80
FF80
FF80
FF80
FF80
ENDCHAR
STARTCHAR agrave
ENCODING 224
SWIDTH 500 0
DWIDTH 8 0
BBX 7 7 0 0
BITMAP
7600
DC00
D800
D800
D800
DC00
7600
ENDCHAR
STARTCHAR aacute
ENCODING 225
SWIDTH 500 0
DWIDTH 8 0
BBX 7 10 0 0
BITMAP
7800
CC00
CC00
CC00
D800
CC00
C600
C600
C600
CC00
ENDCHAR
STARTCHAR acircumflex
ENCODING 226
SWIDTH 500 0
DWIDTH 8 0
BBX 7 10 0 0
BITMAP
FE00
C600
C600
C000
C000
C000
C000
C000
C000
C000
ENDCHAR
STARTCHAR atilde
ENCODING 227
SWIDTH 500 0
DWIDTH 8 0
BBX 7 7 0 0
BITMAP
FE00
6C00
6C00
6C00
6C00
6C00
6C00
ENDCHAR
STARTCHAR adieresis
ENCODING 228
SWIDTH 500 0
DWIDTH 8 0
BBX 7 10 0 0
BITMAP
FE00
C600
6000
3000
1800
1800
3000
6000
C600
FE00
ENDCHAR
STARTCHAR aring
ENCODING 229
SWIDTH 500 0
DWIDTH 8 0
BBX 7 7 0 0
BITMAP
7E00
D800
D800
D800
D800
D800
7000
ENDCHAR
STARTCHAR ae
ENCODING 230
SWIDTH 500 0
DWIDTH 8 0
BBX 7 10 0 -3
BITMAP
6600
6600
6600
6600
6600
6600
7C00
6000
6000
C000
ENDCHAR
STARTCHAR ccedilla
ENCODING 231
SWIDTH 500 0
DWIDTH 8 0
BBX 7 8 0 0
BITMAP
7600
DC00
1800
1800
1800
1800
1800
1800
ENDCHAR
STARTCHAR egrave
ENCODING 232
SWIDTH 500 0
DWIDTH 8 0
BBX 6 10 1 0
BITMAP
FC00
3000
7800
CC00
CC00
CC00
CC00
7800
3000
FC00
ENDCHAR
STARTCHAR eacute
ENCODING 233
SWIDTH 500 0
DWIDTH 8 0
BBX 7 10 0 0
BITMAP
3800
6C00
C600
C600
FE00
C600
C600
C600
6C00
3800
ENDCHAR
STARTCHAR ecircumflex
ENCODING 234
SWIDTH 500 0
DWIDTH 8 0
BBX 7 10 0 0
BITMAP
3800
6C00
C600
C600
C600
6C00
6C00
6C00
6C00
EE00
ENDCHAR
STARTCHAR edieresis
ENCODING 235
SWIDTH 500 0
DWIDTH 8 0
BBX 6 10 1 0
BITMAP
3C00
6000
3000
1800
7C00
CC00
CC00
CC00
CC00
7800
ENDCHAR
STARTCHAR igrave
ENCODING 236
SWIDTH 500 0
DWIDTH 8 0
BBX 8 5 0 2
BITMAP
7E00
DB80
DB80
DB80
7E00
ENDCHAR
STARTCHAR iacute
ENCODING 237
SWIDTH 500 0
DWIDTH 8 0
BBX 8 9 0 0
BITMAP
0380
0600
7E00
DB80
DB80
F380
7E00
6000
C000
ENDCHAR
STARTCHAR icircumflex
ENCODING 238
SWIDTH 500 0
DWIDTH 8 0
BBX 5 10 1 0
BITMAP
3800
6000
C000
C000
F800
C000
C000
C000
6000
3800
ENDCHAR
STARTCHAR idieresis
ENCODING 239
SWIDTH 500 0
DWIDTH 8 0
BBX 7 9 0 0
BITMAP
7C00
C600
C600
C600
C600
C600
C600
C600
C600
ENDCHAR
STARTCHAR eth
ENCODING 240
SWIDTH 500 0
DWIDTH 8 0
BBX 7 7 0 1
BITMAP
FE00
0000
0000
FE00
0000
0000
FE00
ENDCHAR
STARTCHAR ntilde
ENCODING 241
SWIDTH 500 0
DWIDTH 8 0
BBX 6 8 1 0
BITMAP
3000
3000
FC00
3000
3000
0000
0000
FC00
ENDCHAR
STARTCHAR ograve
ENCODING 242
SWIDTH 500 0
DWIDTH 8 0
BBX 6 9 1 0
BITMAP
6000
3000
1800
0C00
1800
3000
6000
0000
FC00
ENDCHAR
STARTCHAR oacute
ENCODING 243
SWIDTH 500 0
DWIDTH 8 0
BBX 6 9 1 0
BITMAP
1800
3000
6000
C000
6000
3000
1800
0000
FC00
ENDCHAR
STARTCHAR ocircumflex
ENCODING 244
SWIDTH 500 0
DWIDTH 8 0
BBX 5 14 3 -4
BITMAP
7000
D800
D800
C000
C000
C000
C000
C000
C000
C000
C000
C000
C000
C000
ENDCHAR
STARTCHAR otilde
ENCODING 245
SWIDTH 500 0
DWIDTH 8 0
BBX 5 13 0 -1
BITMAP
1800
1800
1800
1800
1800
1800
1800
1800
1800
1800
D800
D800
F800
ENDCHAR
STARTCHAR odieresis
ENCODING 246
SWIDTH 500 0
DWIDTH 8 0
BBX 6 5 1 2
BITMAP
3000
0000
FC00
0000
3000
ENDCHAR
STARTCHAR divide
ENCODING 247
SWIDTH 500 0
DWIDTH 8 0
BBX 7 5 0 2
BITMAP
7600
DC00
0000
7600
DC00
ENDCHAR
STARTCHAR oslash
ENCODING 248
SWIDTH 500 0
DWIDTH 8 0
BBX 5 4 1 7
BITMAP
7000
D800
D800
7000
ENDCHAR
STARTCHAR ugrave
ENCODING 249
SWIDTH 500 0
DWIDTH 8 0
BBX 2 2 3 3
BITMAP
C000
C000
ENDCHAR
STARTCHAR uacute
ENCODING 250
SWIDTH 500 0
DWIDTH 8 0
BBX 2 1 3 4
BITMAP
C000
ENDCHAR
STARTCHAR ucircumflex
ENCODING 251
SWIDTH 500 0
DWIDTH 8 0
BBX 8 11 0 0
BITMAP
0F00
0C00
0C00
0C00
0C00
0C00
EC00
6C00
6C00
3C00
1C00
ENDCHAR
STARTCHAR udieresis
ENCODING 252
SWIDTH 500 0
DWIDTH 8 0
BBX 6 6 1 5
BITMAP
D800
6C00
6C00
6C00
6C00
6C00
ENDCHAR
STARTCHAR yacute
ENCODING 253
SWIDTH 500 0
DWIDTH 8 0
BBX 6 6 1 5
BITMAP
7800
CC00
1800
3000
6400
FC00
ENDCHAR
STARTCHAR uni25A0
ENCODING 254
SWIDTH 500 0
DWIDTH 8 0
BBX 6 7 1 1
BITMAP
FC00
FC00
FC00
FC00
FC00
FC00
FC00
ENDCHAR
ENDFONT
